<svg width="24" height="25" viewBox="0 0 24 25" fill="none" xmlns="http://www.w3.org/2000/svg">
<g id="icon/24/bell">
<path id="&#244;&#128;&#139;&#153;" d="M2.81543 17.4541C2.81543 17.1077 2.89893 16.783 3.06592 16.48C3.2391 16.1707 3.45866 15.877 3.72461 15.5986C3.99056 15.3141 4.26579 15.0358 4.55029 14.7637C4.77913 14.5534 4.9554 14.2812 5.0791 13.9473C5.20898 13.6071 5.30485 13.2267 5.3667 12.8062C5.43473 12.3794 5.49349 11.9248 5.54297 11.4424C5.59863 10.3044 5.75944 9.29313 6.02539 8.40869C6.29134 7.52425 6.68099 6.78206 7.19434 6.18213C7.71387 5.57601 8.37565 5.1276 9.17969 4.83691C9.36523 4.21224 9.7085 3.6958 10.2095 3.2876C10.7104 2.87321 11.3042 2.66602 11.9907 2.66602C12.6896 2.66602 13.2896 2.87321 13.7905 3.2876C14.2915 3.6958 14.6348 4.21224 14.8203 4.83691C15.6182 5.1276 16.2738 5.57601 16.7871 6.18213C17.3066 6.78206 17.6994 7.52425 17.9653 8.40869C18.2375 9.29313 18.4014 10.3044 18.457 11.4424C18.5065 11.9248 18.5622 12.3794 18.624 12.8062C18.6921 13.2267 18.7879 13.6071 18.9116 13.9473C19.0415 14.2812 19.2209 14.5534 19.4497 14.7637C19.7342 15.0358 20.0094 15.3141 20.2754 15.5986C20.5413 15.877 20.7578 16.1707 20.9248 16.48C21.098 16.783 21.1846 17.1077 21.1846 17.4541C21.1846 17.887 21.0361 18.2365 20.7393 18.5024C20.4424 18.7622 20.0373 18.8921 19.5239 18.8921H15.7759C15.7511 19.4858 15.578 20.0456 15.2563 20.5713C14.9409 21.097 14.5018 21.5207 13.939 21.8423C13.3823 22.1701 12.7329 22.334 11.9907 22.334C11.2609 22.334 10.6146 22.1701 10.0518 21.8423C9.49512 21.5145 9.05599 21.0877 8.73438 20.562C8.41895 20.0425 8.24886 19.4858 8.22412 18.8921H4.47607C3.96273 18.8921 3.55762 18.7622 3.26074 18.5024C2.96387 18.2365 2.81543 17.887 2.81543 17.4541ZM5.33887 16.9717H18.624V16.8696C18.5251 16.783 18.4076 16.6779 18.2715 16.5542C18.1416 16.4243 17.9993 16.2821 17.8447 16.1274C17.6963 15.9728 17.5479 15.8089 17.3994 15.6357C17.251 15.4564 17.118 15.2337 17.0005 14.9678C16.883 14.7018 16.784 14.4019 16.7036 14.0679C16.6294 13.7339 16.5645 13.3721 16.5088 12.9824C16.4531 12.5928 16.4129 12.1815 16.3882 11.7485C16.3511 10.5672 16.2088 9.62402 15.9614 8.91895C15.714 8.20768 15.3955 7.67269 15.0059 7.31396C14.6224 6.95524 14.1925 6.71094 13.7163 6.58105C13.605 6.55632 13.5153 6.51302 13.4473 6.45117C13.3854 6.38932 13.3514 6.29036 13.3452 6.1543C13.3143 5.69661 13.1782 5.32861 12.937 5.05029C12.702 4.77197 12.3866 4.63281 11.9907 4.63281C11.6011 4.63281 11.2887 4.77197 11.0537 5.05029C10.8187 5.32861 10.6857 5.69661 10.6548 6.1543C10.6424 6.29036 10.6053 6.38932 10.5435 6.45117C10.4816 6.51302 10.395 6.55632 10.2837 6.58105C9.80127 6.71094 9.36523 6.95524 8.97559 7.31396C8.59212 7.67269 8.27669 8.20768 8.0293 8.91895C7.78809 9.62402 7.64583 10.5672 7.60254 11.7485C7.5778 12.1815 7.54069 12.5928 7.49121 12.9824C7.44173 13.3721 7.3737 13.7339 7.28711 14.0679C7.20671 14.4019 7.10775 14.7018 6.99023 14.9678C6.87891 15.2337 6.74593 15.4564 6.59131 15.6357C6.44906 15.8089 6.29753 15.9728 6.13672 16.1274C5.9821 16.2821 5.83366 16.4243 5.69141 16.5542C5.55534 16.6779 5.43783 16.783 5.33887 16.8696V16.9717ZM10.2002 18.8921C10.2311 19.4425 10.4136 19.8817 10.7476 20.2095C11.0815 20.5373 11.4959 20.7012 11.9907 20.7012C12.4979 20.7012 12.9154 20.5373 13.2432 20.2095C13.5771 19.8817 13.7627 19.4425 13.7998 18.8921H10.2002Z" fill="#212121"/>
</g>
</svg>
