<svg width="24" height="25" viewBox="0 0 24 25" fill="none" xmlns="http://www.w3.org/2000/svg">
<g id="icon/24/heart">
<path id="&#244;&#128;&#138;&#180;" d="M2.25415 9.53719C2.25415 8.63532 2.39705 7.81285 2.68285 7.06976C2.97501 6.32668 3.37831 5.68521 3.89275 5.14536C4.41354 4.60552 5.01373 4.19269 5.6933 3.90689C6.37288 3.61474 7.10643 3.46866 7.89398 3.46866C8.8149 3.46866 9.62467 3.65919 10.3233 4.04026C11.0219 4.41498 11.5808 4.91037 12 5.52643C12.4255 4.91037 12.9844 4.41498 13.6767 4.04026C14.3753 3.65919 15.1851 3.46866 16.106 3.46866C16.8936 3.46866 17.6271 3.61474 18.3067 3.90689C18.9926 4.19269 19.5928 4.60552 20.1073 5.14536C20.6217 5.68521 21.0218 6.32668 21.3076 7.06976C21.5998 7.81285 21.7458 8.63532 21.7458 9.53719C21.7458 10.8963 21.387 12.246 20.6693 13.5861C19.9516 14.9198 18.9386 16.2186 17.6303 17.4825C16.3283 18.74 14.7977 19.9404 13.0384 21.0836C12.8606 21.1979 12.6764 21.2995 12.4859 21.3884C12.3017 21.4837 12.1397 21.5313 12 21.5313C11.8666 21.5313 11.7047 21.4837 11.5141 21.3884C11.3236 21.2995 11.1426 21.1979 10.9711 21.0836C9.20549 19.9404 7.66851 18.74 6.36017 17.4825C5.05819 16.2186 4.04835 14.9198 3.33067 13.5861C2.61299 12.246 2.25415 10.8963 2.25415 9.53719ZM4.46435 9.52766C4.46435 10.3343 4.65489 11.1631 5.03596 12.0141C5.42338 12.8588 5.95687 13.6972 6.63645 14.5292C7.31602 15.3548 8.10039 16.1551 8.98955 16.9299C9.87871 17.7048 10.8282 18.4256 11.838 19.0925C11.9206 19.156 11.9746 19.1878 12 19.1878C12.0254 19.1878 12.0826 19.156 12.1715 19.0925C13.175 18.4256 14.1213 17.7048 15.0104 16.9299C15.8996 16.1551 16.684 15.3548 17.3636 14.5292C18.0431 13.6972 18.5734 12.8588 18.9545 12.0141C19.3419 11.1631 19.5356 10.3343 19.5356 9.52766C19.5356 8.74647 19.3769 8.06372 19.0593 7.47941C18.7481 6.89511 18.3194 6.441 17.7732 6.11709C17.227 5.78683 16.6078 5.6217 15.9155 5.6217C15.3566 5.6217 14.8802 5.71697 14.4865 5.9075C14.0927 6.09169 13.7529 6.32985 13.4671 6.62201C13.1813 6.90781 12.9336 7.19679 12.724 7.48894C12.5843 7.67312 12.4605 7.8065 12.3525 7.88906C12.2509 7.97163 12.1334 8.01291 12 8.01291C11.8666 8.01291 11.746 7.9748 11.638 7.89859C11.53 7.81603 11.4062 7.67948 11.2664 7.48894C11.0696 7.19679 10.8282 6.90781 10.5424 6.62201C10.263 6.33621 9.92317 6.09804 9.52305 5.9075C9.12293 5.71697 8.64341 5.6217 8.08451 5.6217C7.39224 5.6217 6.773 5.78683 6.2268 6.11709C5.6806 6.441 5.24872 6.89511 4.93116 7.47941C4.61996 8.06372 4.46435 8.74647 4.46435 9.52766Z" fill="#212121"/>
</g>
</svg>
