<svg width="24" height="25" viewBox="0 0 24 25" fill="none" xmlns="http://www.w3.org/2000/svg">
<g id="icon/24/star">
<path id="&#244;&#128;&#137;&#169;" d="M6.18603 21.3331C5.97575 21.1726 5.84847 20.9596 5.8042 20.694C5.75993 20.4339 5.7959 20.1323 5.91211 19.7892L7.59717 14.7838L3.29736 11.7042C2.99853 11.4884 2.78825 11.2643 2.6665 11.0319C2.55029 10.7939 2.53646 10.5476 2.625 10.2931C2.70801 10.0441 2.86572 9.85868 3.09814 9.73694C3.33056 9.61519 3.62939 9.55709 3.99463 9.56262L9.27392 9.59583L10.876 4.55725C10.9867 4.20862 11.1361 3.94299 11.3242 3.76038C11.5124 3.57222 11.7365 3.47815 11.9966 3.47815C12.2622 3.47815 12.4891 3.57222 12.6772 3.76038C12.8654 3.94299 13.0148 4.20862 13.1255 4.55725L14.7275 9.59583L19.9985 9.56262C20.3693 9.55709 20.6709 9.61519 20.9033 9.73694C21.1357 9.85868 21.2935 10.0441 21.3765 10.2931C21.465 10.5476 21.4484 10.7939 21.3267 11.0319C21.2104 11.2643 21.0029 11.4884 20.7041 11.7042L16.4043 14.7838L18.0894 19.7892C18.2056 20.1323 18.2415 20.4339 18.1973 20.694C18.153 20.9596 18.0257 21.1726 17.8154 21.3331C17.5996 21.4936 17.3589 21.5517 17.0933 21.5074C16.8332 21.4632 16.5565 21.3331 16.2632 21.1173L11.9966 17.9879L7.73828 21.1173C7.44499 21.3331 7.16553 21.4632 6.8999 21.5074C6.63981 21.5517 6.40185 21.4936 6.18603 21.3331Z" fill="#FEE440"/>
</g>
</svg>
