<svg width="33" height="32" viewBox="0 0 33 32" fill="none" xmlns="http://www.w3.org/2000/svg">
<g id="icon/24/bag">
<path id="&#244;&#128;&#141;&#163;" d="M6.52866 24.0683V12.6243C6.52866 11.4142 6.84593 10.4919 7.48048 9.85734C8.12241 9.22279 9.05578 8.90552 10.2806 8.90552H11.7194C11.7342 8.04961 11.9629 7.2675 12.4056 6.55916C12.8557 5.85083 13.4497 5.28638 14.1875 4.8658C14.9327 4.43785 15.7554 4.22388 16.6556 4.22388C17.5632 4.22388 18.3896 4.43785 19.1348 4.8658C19.88 5.28638 20.474 5.85083 20.9167 6.55916C21.3668 7.2675 21.5955 8.04961 21.6029 8.90552H23.0527C24.2702 8.90552 25.1999 9.22279 25.8418 9.85734C26.4837 10.4919 26.8047 11.4142 26.8047 12.6243V24.0683C26.8047 25.2783 26.4948 26.197 25.875 26.8241C25.2552 27.4587 24.3919 27.776 23.2852 27.776H10.2806C9.05578 27.776 8.12241 27.4587 7.48048 26.8241C6.84593 26.197 6.52866 25.2783 6.52866 24.0683ZM8.98569 23.8137C8.98569 24.3228 9.11112 24.7028 9.36199 24.9537C9.62024 25.1972 9.99285 25.3189 10.4798 25.3189H23.0749C23.4438 25.3189 23.7463 25.1972 23.9824 24.9537C24.2185 24.7028 24.3366 24.3228 24.3366 23.8137V12.8788C24.3366 12.3697 24.2075 11.9934 23.9492 11.7499C23.691 11.4991 23.3221 11.3736 22.8425 11.3736H10.4798C9.99285 11.3736 9.62024 11.4991 9.36199 11.7499C9.11112 11.9934 8.98569 12.3697 8.98569 12.8788V23.8137ZM14.0547 8.90552H19.2676C19.2528 8.4333 19.1311 8.00534 18.9024 7.62166C18.681 7.2306 18.3748 6.92071 17.9837 6.69198C17.6001 6.46324 17.1573 6.34888 16.6556 6.34888C16.1686 6.34888 15.7296 6.46324 15.3386 6.69198C14.9549 6.92071 14.6487 7.2306 14.4199 7.62166C14.1912 8.00534 14.0695 8.4333 14.0547 8.90552Z" fill="#9E9E9E"/>
</g>
</svg>
