<svg width="16" height="16" viewBox="0 0 16 16" fill="none" xmlns="http://www.w3.org/2000/svg">
<g id="icon/24/star">
<path id="&#244;&#128;&#137;&#169;" d="M4.12406 13.8888C3.98387 13.7818 3.89902 13.6398 3.86951 13.4627C3.83999 13.2893 3.86397 13.0882 3.94145 12.8595L5.06482 9.52258L2.19828 7.46952C1.99906 7.32564 1.85887 7.17623 1.77771 7.02128C1.70024 6.86264 1.69101 6.69847 1.75004 6.52877C1.80538 6.36275 1.91052 6.23916 2.06547 6.158C2.22042 6.07684 2.41964 6.0381 2.66313 6.04179L6.18266 6.06392L7.25069 2.70487C7.32448 2.47245 7.42409 2.29537 7.54952 2.17362C7.67495 2.04819 7.82437 1.98547 7.99776 1.98547C8.17484 1.98547 8.3261 2.04819 8.45154 2.17362C8.57697 2.29537 8.67658 2.47245 8.75037 2.70487L9.8184 6.06392L13.3324 6.04179C13.5796 6.0381 13.7806 6.07684 13.9356 6.158C14.0905 6.23916 14.1957 6.36275 14.251 6.52877C14.31 6.69847 14.299 6.86264 14.2178 7.02128C14.1403 7.17623 14.002 7.32564 13.8028 7.46952L10.9362 9.52258L12.0596 12.8595C12.1371 13.0882 12.1611 13.2893 12.1316 13.4627C12.102 13.6398 12.0172 13.7818 11.877 13.8888C11.7331 13.9958 11.5726 14.0345 11.3955 14.005C11.2222 13.9755 11.0377 13.8888 10.8422 13.7449L7.99776 11.6587L5.15889 13.7449C4.96337 13.8888 4.77706 13.9755 4.59998 14.005C4.42658 14.0345 4.26794 13.9958 4.12406 13.8888Z" fill="#FEE440"/>
</g>
</svg>
