<svg width="56" height="56" viewBox="0 0 56 56" fill="none" xmlns="http://www.w3.org/2000/svg">
<path d="M0 10C0 4.47715 4.47715 0 10 0H46C51.5229 0 56 4.47715 56 10V46C56 51.5229 51.5228 56 46 56H10C4.47715 56 0 51.5228 0 46V10Z" fill="#C5CAE9"/>
<path d="M21.11 41.0319C19.9308 41.0319 19.0237 40.7227 18.3887 40.1042C17.7537 39.4857 17.4362 38.5909 17.4362 37.4199V30.1465H17.3743C16.8466 29.9733 16.4466 29.6558 16.1745 29.194C15.9023 28.7322 15.7663 28.1508 15.7663 27.4499V24.3945C15.7663 23.4957 16.0137 22.7865 16.5085 22.2669C17.0033 21.7392 17.6836 21.4753 18.5495 21.4753H20.4544C20.1163 21.1454 19.8524 20.7537 19.6628 20.3001C19.4731 19.8383 19.3783 19.3435 19.3783 18.8158C19.3783 17.9829 19.5803 17.2448 19.9844 16.6016C20.3967 15.9501 20.941 15.4388 21.6172 15.0677C22.2934 14.6966 23.0521 14.5111 23.8932 14.5111C24.8416 14.5111 25.6868 14.7708 26.429 15.2904C27.1712 15.8099 27.6908 16.5521 27.9876 17.5169C28.2927 16.5521 28.8164 15.8099 29.5586 15.2904C30.309 14.7708 31.1543 14.5111 32.0944 14.5111C32.9273 14.5111 33.6819 14.6966 34.3581 15.0677C35.0425 15.4388 35.5868 15.9501 35.9909 16.6016C36.395 17.2448 36.597 17.9829 36.597 18.8158C36.597 19.3435 36.5022 19.8383 36.3125 20.3001C36.1311 20.7537 35.8754 21.1454 35.5456 21.4753H37.4505C38.3329 21.4753 39.0132 21.7392 39.4915 22.2669C39.9781 22.7865 40.2214 23.4957 40.2214 24.3945V27.4499C40.2214 28.1508 40.0853 28.7322 39.8131 29.194C39.541 29.6558 39.1369 29.9733 38.6009 30.1465H38.5514V37.4199C38.5514 38.5909 38.2339 39.4857 37.599 40.1042C36.964 40.7227 36.061 41.0319 34.89 41.0319H21.11ZM26.6393 38.558V30.3444H20.1452V37.0983C20.1452 37.5601 20.273 37.9188 20.5286 38.1745C20.7843 38.4301 21.1471 38.558 21.6172 38.558H26.6393ZM29.3483 38.558H34.3704C34.8405 38.558 35.2033 38.4301 35.459 38.1745C35.7146 37.9188 35.8424 37.5601 35.8424 37.0983V30.3444H29.3483V38.558ZM26.6393 27.9199V23.9121H19.2917C19.003 23.9121 18.7927 23.9781 18.6608 24.11C18.5371 24.242 18.4753 24.4523 18.4753 24.7409V27.0912C18.4753 27.3798 18.5371 27.5901 18.6608 27.722C18.7927 27.854 19.003 27.9199 19.2917 27.9199H26.6393ZM29.3483 27.9199H36.7083C36.9887 27.9199 37.1908 27.8622 37.3145 27.7468C37.4464 27.6231 37.5124 27.4169 37.5124 27.1283V24.7409C37.5124 24.4523 37.4464 24.242 37.3145 24.11C37.1908 23.9781 36.9887 23.9121 36.7083 23.9121H29.3483V27.9199ZM26.7135 21.4753V19.8796C26.7135 19.0302 26.4661 18.3457 25.9714 17.8262C25.4766 17.3067 24.8787 17.0469 24.1777 17.0469C23.518 17.0469 22.9861 17.2324 22.582 17.6035C22.1779 17.9746 21.9759 18.4859 21.9759 19.1374C21.9759 19.7971 22.2316 20.3537 22.7428 20.8073C23.2541 21.2526 23.9716 21.4753 24.8952 21.4753H26.7135ZM29.2741 21.4753H31.0924C32.0161 21.4753 32.7335 21.2526 33.2448 20.8073C33.7561 20.3537 34.0117 19.7971 34.0117 19.1374C34.0117 18.4859 33.8097 17.9746 33.4056 17.6035C33.0098 17.2324 32.4779 17.0469 31.8099 17.0469C31.1172 17.0469 30.5193 17.3067 30.0163 17.8262C29.5215 18.3457 29.2741 19.0302 29.2741 19.8796V21.4753Z" fill="#3F51B5"/>
</svg>
