<svg width="16" height="16" viewBox="0 0 16 16" fill="none" xmlns="http://www.w3.org/2000/svg">
<path id="&#244;&#128;&#139;&#131;" d="M3.21203 15.2744C3.03885 15.1422 2.93404 14.9667 2.89758 14.748C2.86112 14.5338 2.89074 14.2854 2.98645 14.0029L4.37414 9.8808L0.833125 7.34467C0.587031 7.16693 0.413854 6.98236 0.313594 6.79095C0.217891 6.59499 0.206497 6.39219 0.279414 6.18256C0.347773 5.97748 0.477656 5.82481 0.669062 5.72455C0.860469 5.62429 1.10656 5.57644 1.40734 5.58099L5.755 5.60834L7.07434 1.45892C7.16548 1.17181 7.28853 0.953064 7.44348 0.802673C7.59842 0.647725 7.78299 0.570251 7.99719 0.570251C8.21594 0.570251 8.40279 0.647725 8.55773 0.802673C8.71268 0.953064 8.83573 1.17181 8.92688 1.45892L10.2462 5.60834L14.587 5.58099C14.8924 5.57644 15.1407 5.62429 15.3321 5.72455C15.5236 5.82481 15.6534 5.97748 15.7218 6.18256C15.7947 6.39219 15.781 6.59499 15.6808 6.79095C15.5851 6.98236 15.4142 7.16693 15.1681 7.34467L11.6271 9.8808L13.0148 14.0029C13.1105 14.2854 13.1401 14.5338 13.1036 14.748C13.0672 14.9667 12.9624 15.1422 12.7892 15.2744C12.6114 15.4065 12.4132 15.4544 12.1945 15.4179C11.9803 15.3814 11.7524 15.2744 11.5109 15.0966L7.99719 12.5195L4.49035 15.0966C4.24882 15.2744 4.01867 15.3814 3.79992 15.4179C3.58573 15.4544 3.38977 15.4065 3.21203 15.2744Z" fill="#FEE440"/>
</svg>
