<svg width="32" height="32" viewBox="0 0 32 32" fill="none" xmlns="http://www.w3.org/2000/svg">
<g id="icon/24/home">
<path id="&#244;&#128;&#142;&#158;" d="M12.818 26.3097V18.363C12.818 18.1048 12.8992 17.8982 13.0615 17.7432C13.2239 17.5809 13.4341 17.4998 13.6924 17.4998H18.3187C18.5769 17.4998 18.7835 17.5809 18.9385 17.7432C19.1008 17.8982 19.182 18.1048 19.182 18.363V26.3097H12.818ZM8.49056 27.9809C7.61252 27.9809 6.92632 27.7374 6.43197 27.2504C5.93761 26.7708 5.69043 26.1067 5.69043 25.2582V12.9731L8.15853 11.2908V24.4392C8.15853 24.786 8.24707 25.0516 8.42415 25.2361C8.60862 25.4205 8.87055 25.5128 9.20996 25.5128H22.7458C23.0852 25.5128 23.3434 25.4205 23.5205 25.2361C23.705 25.0516 23.7972 24.786 23.7972 24.4392V11.2797L26.2542 12.9731V25.2582C26.2542 26.1067 26.0071 26.7708 25.5127 27.2504C25.0257 27.7374 24.3432 27.9809 23.4652 27.9809H8.49056ZM2.27051 15.3416C2.27051 14.9579 2.43652 14.6295 2.76855 14.3565L14.3011 4.67228C14.825 4.23695 15.3968 4.01929 16.0166 4.01929C16.6364 4.01929 17.2082 4.23695 17.7321 4.67228L29.2425 14.3565C29.5672 14.6222 29.7295 14.9579 29.7295 15.3637C29.7295 15.7252 29.6077 16.013 29.3643 16.227C29.1281 16.4336 28.833 16.5369 28.4788 16.5369C28.287 16.5369 28.1062 16.4963 27.9365 16.4151C27.7668 16.3266 27.6082 16.2233 27.4606 16.1052L16.5479 6.93009C16.3781 6.78253 16.2011 6.70874 16.0166 6.70874C15.8321 6.70874 15.6551 6.78253 15.4854 6.93009L4.55046 16.1052C4.40289 16.2233 4.24425 16.3266 4.07454 16.4151C3.90484 16.4963 3.72407 16.5369 3.53223 16.5369C3.14855 16.5369 2.84234 16.4225 2.61361 16.1938C2.38487 15.9577 2.27051 15.6736 2.27051 15.3416ZM22.8675 9.70809V7.04077C22.8675 6.78253 22.9413 6.57962 23.0889 6.43205C23.2438 6.28448 23.4467 6.21069 23.6976 6.21069H25.4242C25.675 6.21069 25.8742 6.28448 26.0218 6.43205C26.1768 6.57962 26.2542 6.78253 26.2542 7.04077V12.5525L22.8675 9.70809Z" fill="#212121"/>
</g>
</svg>
