<svg width="32" height="32" viewBox="0 0 32 32" fill="none" xmlns="http://www.w3.org/2000/svg">
<g id="icon/24/person">
<path id="&#244;&#128;&#137;&#169;" d="M8.04036 28.0581C5.79122 28.0581 4.66666 27.2885 4.66666 25.7491C4.66666 24.8426 4.93604 23.9105 5.47481 22.9527C6.01357 21.9949 6.77896 21.1055 7.77098 20.2845C8.77154 19.455 9.96453 18.7879 11.3499 18.2834C12.7439 17.7702 14.2918 17.5137 15.9936 17.5137C17.7039 17.5137 19.2518 17.7702 20.6372 18.2834C22.0312 18.7879 23.2242 19.455 24.2162 20.2845C25.2167 21.1055 25.9864 21.9949 26.5252 22.9527C27.0639 23.9105 27.3333 24.8426 27.3333 25.7491C27.3333 27.2885 26.2088 28.0581 23.9596 28.0581H8.04036ZM7.75815 25.6337H24.2418C24.3787 25.6337 24.4727 25.608 24.524 25.5567C24.5839 25.5054 24.6138 25.4242 24.6138 25.313C24.6138 24.8512 24.4214 24.3167 24.0366 23.7095C23.6603 23.0938 23.1044 22.5037 22.369 21.9393C21.6335 21.3663 20.7313 20.8917 19.6623 20.5154C18.5933 20.1391 17.3704 19.951 15.9936 19.951C14.6253 19.951 13.4024 20.1391 12.3248 20.5154C11.2559 20.8917 10.3536 21.3663 9.61818 21.9393C8.88272 22.5037 8.32257 23.0938 7.93774 23.7095C7.56146 24.3167 7.37332 24.8512 7.37332 25.313C7.37332 25.4242 7.40325 25.5054 7.46311 25.5567C7.52297 25.608 7.62132 25.6337 7.75815 25.6337ZM15.9936 16.0898C14.9503 16.0898 14.001 15.8161 13.1458 15.2688C12.2906 14.713 11.6065 13.9732 11.0934 13.0496C10.5888 12.1175 10.3365 11.0912 10.3365 9.97095C10.3365 8.85921 10.5931 7.85009 11.1062 6.9436C11.6193 6.0371 12.3035 5.31019 13.1586 4.76287C14.0138 4.21555 14.9588 3.94189 15.9936 3.94189C17.0455 3.94189 17.999 4.21128 18.8542 4.75004C19.7094 5.28881 20.3892 6.01144 20.8938 6.91794C21.4069 7.82444 21.6635 8.83356 21.6635 9.9453C21.6635 11.0741 21.4069 12.1046 20.8938 13.0368C20.3892 13.9604 19.7094 14.7001 18.8542 15.256C17.999 15.8119 17.0455 16.0898 15.9936 16.0898ZM15.9936 13.6654C16.5751 13.6654 17.101 13.5029 17.5714 13.1779C18.0503 12.8529 18.4309 12.4082 18.7131 11.8438C19.0038 11.2794 19.1492 10.6465 19.1492 9.9453C19.1492 9.26115 19.0038 8.64969 18.7131 8.11092C18.4309 7.57216 18.0503 7.14884 17.5714 6.84097C17.101 6.53311 16.5751 6.37917 15.9936 6.37917C15.4292 6.37917 14.9075 6.53738 14.4286 6.8538C13.9497 7.16167 13.5649 7.58498 13.2741 8.12375C12.9919 8.66252 12.8508 9.27398 12.8508 9.95812C12.8508 10.6679 12.9962 11.305 13.2869 11.8695C13.5777 12.4253 13.9582 12.8658 14.4286 13.1907C14.9075 13.5071 15.4292 13.6654 15.9936 13.6654Z" fill="#9E9E9E"/>
</g>
</svg>
