<svg width="56" height="56" viewBox="0 0 56 56" fill="none" xmlns="http://www.w3.org/2000/svg">
<path d="M0 10C0 4.47715 4.47715 0 10 0H46C51.5229 0 56 4.47715 56 10V46C56 51.5229 51.5228 56 46 56H10C4.47715 56 0 51.5228 0 46V10Z" fill="#C8E6C9"/>
<path d="M28 29.6914C26.753 29.6914 25.5319 29.6545 24.3366 29.5807C23.1486 29.4996 22.0493 29.3852 21.0384 29.2376C20.1825 29.1122 19.607 28.747 19.3118 28.1419C19.0241 27.5295 19.0278 26.7659 19.3229 25.8509L22.2891 16.5983C22.5768 15.6981 23.0749 15.023 23.7832 14.5729C24.4915 14.1228 25.3622 13.8978 26.3952 13.8978H29.6048C30.6452 13.8978 31.5158 14.1228 32.2168 14.5729C32.9251 15.023 33.4232 15.6981 33.7109 16.5983L36.6771 25.8509C36.9722 26.7659 36.9722 27.5295 36.6771 28.1419C36.3893 28.747 35.8175 29.1122 34.9616 29.2376C33.9507 29.3852 32.8477 29.4996 31.6523 29.5807C30.4644 29.6545 29.247 29.6914 28 29.6914ZM28 27.3672C29.0256 27.3672 30.0365 27.3377 31.0325 27.2787C32.036 27.2196 33.0247 27.1348 33.9987 27.0241C34.2127 27.002 34.3418 26.9282 34.3861 26.8027C34.4303 26.6773 34.4193 26.5039 34.3529 26.2826L31.5859 17.4837C31.4531 17.0558 31.217 16.7385 30.8776 16.5319C30.5382 16.3179 30.1139 16.2109 29.6048 16.2109H26.3952C25.8861 16.2109 25.4618 16.3179 25.1224 16.5319C24.783 16.7385 24.5469 17.0558 24.4141 17.4837L21.6471 26.2826C21.5807 26.5039 21.5697 26.6773 21.6139 26.8027C21.6582 26.9282 21.7873 27.002 22.0013 27.0241C22.9753 27.1348 23.9603 27.2196 24.9564 27.2787C25.9598 27.3377 26.9744 27.3672 28 27.3672ZM26.7493 28.474H29.2506V41.2793H26.7493V28.474ZM22.9088 42.0873C22.6137 42.0873 22.3739 41.984 22.1894 41.7774C22.005 41.5781 21.9128 41.3273 21.9128 41.0248C21.9128 40.4861 22.1083 40.0471 22.4993 39.7077C22.8904 39.3757 23.4069 39.2096 24.0488 39.2096H31.9512C32.5931 39.2096 33.1096 39.3757 33.5006 39.7077C33.8991 40.0471 34.0983 40.4861 34.0983 41.0248C34.0983 41.3273 34.0024 41.5781 33.8105 41.7774C33.6261 41.984 33.3863 42.0873 33.0911 42.0873H22.9088Z" fill="#4CAF50"/>
</svg>
