<svg width="24" height="25" viewBox="0 0 24 25" fill="none" xmlns="http://www.w3.org/2000/svg">
<g id="icon/24/action">
<path id="&#244;&#128;&#136;&#130;" d="M6.97949 22.8115C6.00684 22.8115 5.26562 22.5596 4.75586 22.0557C4.25195 21.5576 4 20.8252 4 19.8584V11.2979C4 10.3311 4.25195 9.59863 4.75586 9.10059C5.26562 8.59668 6.00684 8.34473 6.97949 8.34473H9.45801V10.3047H7.1377C6.75098 10.3047 6.45508 10.4043 6.25 10.6035C6.05078 10.7969 5.95117 11.0957 5.95117 11.5V19.6562C5.95117 20.0605 6.05078 20.3623 6.25 20.5615C6.45508 20.7607 6.75098 20.8604 7.1377 20.8604H16.9551C17.3359 20.8604 17.6289 20.7607 17.834 20.5615C18.0391 20.3623 18.1416 20.0605 18.1416 19.6562V11.5C18.1416 11.0957 18.0391 10.7969 17.834 10.6035C17.6289 10.4043 17.3359 10.3047 16.9551 10.3047H14.6436V8.34473H17.1221C18.0947 8.34473 18.833 8.59668 19.3369 9.10059C19.8467 9.60449 20.1016 10.3369 20.1016 11.2979V19.8584C20.1016 20.8193 19.8467 21.5518 19.3369 22.0557C18.833 22.5596 18.0947 22.8115 17.1221 22.8115H6.97949ZM12.042 15.7188C11.7959 15.7188 11.585 15.6309 11.4092 15.4551C11.2334 15.2793 11.1455 15.0713 11.1455 14.8311V6.09473L11.2246 4.80273L10.7148 5.46191L9.55469 6.70117C9.39648 6.87109 9.19727 6.95605 8.95703 6.95605C8.74023 6.95605 8.55273 6.88574 8.39453 6.74512C8.24219 6.59863 8.16602 6.41406 8.16602 6.19141C8.16602 5.98633 8.24805 5.79883 8.41211 5.62891L11.3477 2.80762C11.4707 2.69043 11.5879 2.61133 11.6992 2.57031C11.8105 2.52344 11.9248 2.5 12.042 2.5C12.165 2.5 12.2822 2.52344 12.3936 2.57031C12.5107 2.61133 12.6279 2.69043 12.7451 2.80762L15.6807 5.62891C15.8447 5.79883 15.9268 5.98633 15.9268 6.19141C15.9268 6.41406 15.8477 6.59863 15.6895 6.74512C15.5312 6.88574 15.3467 6.95605 15.1357 6.95605C14.9014 6.95605 14.7051 6.87109 14.5469 6.70117L13.3779 5.46191L12.877 4.80273L12.9473 6.09473V14.8311C12.9473 15.0713 12.8594 15.2793 12.6836 15.4551C12.5137 15.6309 12.2998 15.7188 12.042 15.7188Z" fill="#212121"/>
</g>
</svg>
