<svg width="56" height="56" viewBox="0 0 56 56" fill="none" xmlns="http://www.w3.org/2000/svg">
<path d="M0 10C0 4.47715 4.47715 0 10 0H46C51.5229 0 56 4.47715 56 10V46C56 51.5229 51.5228 56 46 56H10C4.47715 56 0 51.5228 0 46V10Z" fill="#FFCDD2"/>
<path d="M33.4896 41.3678C32.5894 41.3678 31.9032 41.1354 31.431 40.6706C30.9661 40.2057 30.6895 39.4863 30.6009 38.5124L29.472 26.8692C29.4204 26.3379 29.5347 25.9099 29.8151 25.5853C30.0955 25.2533 30.4865 25.0872 30.9883 25.0872H40.916C41.4251 25.0872 41.8162 25.2533 42.0892 25.5853C42.3696 25.9099 42.4839 26.3379 42.4323 26.8692L41.3145 38.5124C41.2185 39.4863 40.9345 40.2057 40.4622 40.6706C39.9974 41.1354 39.3149 41.3678 38.4147 41.3678H33.4896ZM33.6335 38.8333H38.2819C38.5918 38.8333 38.7652 38.6636 38.8021 38.3242L39.8203 27.6328H32.0951L33.1022 38.3242C33.1465 38.6636 33.3236 38.8333 33.6335 38.8333ZM35.028 25.9063L35.1497 24.4785C35.2088 23.8809 35.349 23.3791 35.5703 22.9733C35.799 22.5601 36.1458 22.1838 36.6107 21.8444L40.1634 19.2767C40.4733 19.0553 40.7684 18.9779 41.0488 19.0443C41.3366 19.1107 41.5653 19.2619 41.735 19.4981C41.9047 19.7268 41.9785 19.985 41.9564 20.2728C41.9342 20.5532 41.7756 20.8004 41.4805 21.0143L37.7839 23.6595C37.6215 23.7776 37.5035 23.9067 37.4297 24.0469C37.3633 24.1871 37.319 24.3752 37.2969 24.6113L37.2083 25.9063H35.028ZM17.2754 39.3978C16.0653 39.3978 15.1393 39.0805 14.4974 38.446C13.8628 37.8188 13.5456 36.9002 13.5456 35.6901V24.0912C13.5456 23.6337 13.5788 23.2758 13.6452 23.0176C13.719 22.7593 13.8481 22.5048 14.0326 22.2539L16.2572 19.2878V17.694C16.2572 16.7201 16.5265 15.9711 17.0651 15.4473C17.6111 14.9234 18.3822 14.6615 19.3783 14.6615H28.2324C29.2285 14.6615 29.9959 14.9234 30.5345 15.4473C31.0805 15.9711 31.3535 16.7201 31.3535 17.694V19.2878L33.5892 22.2539C33.7072 22.4162 33.7958 22.5749 33.8548 22.7298C33.9138 22.8774 33.9507 23.0655 33.9655 23.2943H31.6302C31.5343 23.2205 31.4347 23.1688 31.3314 23.1393C31.2281 23.1024 31.1137 23.0692 30.9883 23.0397L29.1842 20.638C29.0736 20.4831 28.9998 20.3429 28.9629 20.2175C28.926 20.0846 28.9076 19.9149 28.9076 19.7083V18.1035C28.9076 17.4395 28.5903 17.1074 27.9557 17.1074H19.666C19.0241 17.1074 18.7031 17.4395 18.7031 18.1035V19.7083C18.7031 19.9149 18.6847 20.0846 18.6478 20.2175C18.6183 20.3429 18.5445 20.4831 18.4264 20.638L16.3125 23.4492C16.2387 23.5451 16.1908 23.6337 16.1686 23.7149C16.1539 23.796 16.1465 23.9141 16.1465 24.069V35.347C16.1465 36.3136 16.6261 36.7969 17.5853 36.7969H28.6309L28.8079 38.6895C28.8227 38.8075 28.8375 38.9256 28.8522 39.0436C28.867 39.1691 28.8891 39.2871 28.9186 39.3978H17.2754ZM20.9831 20.2064C20.7617 20.2064 20.5736 20.1289 20.4186 19.974C20.2637 19.8116 20.1862 19.6198 20.1862 19.3984C20.1862 19.1697 20.2637 18.9779 20.4186 18.8229C20.5809 18.6606 20.7691 18.5794 20.9831 18.5794H26.6387C26.8526 18.5794 27.0371 18.6606 27.1921 18.8229C27.3544 18.9779 27.4355 19.1697 27.4355 19.3984C27.4355 19.6198 27.3581 19.8116 27.2031 19.974C27.0482 20.1289 26.86 20.2064 26.6387 20.2064H20.9831Z" fill="#F44336"/>
</svg>
