<svg width="24" height="25" viewBox="0 0 24 25" fill="none" xmlns="http://www.w3.org/2000/svg">
<g id="icon/24/chevron-left">
<path id="&#244;&#128;&#134;&#137;" d="M7.25 12.5C7.25605 12.3125 7.29234 12.1401 7.35888 11.9828C7.43147 11.8255 7.54035 11.6743 7.68553 11.5291L14.6722 4.69675C14.902 4.46689 15.1833 4.35196 15.516 4.35196C15.7459 4.35196 15.9515 4.4064 16.133 4.51528C16.3205 4.62417 16.4687 4.77237 16.5776 4.95989C16.6925 5.14136 16.75 5.344 16.75 5.56781C16.75 5.90656 16.623 6.20296 16.3689 6.45702L10.1535 12.5L16.3689 18.543C16.623 18.8031 16.75 19.0995 16.75 19.4322C16.75 19.6621 16.6925 19.8677 16.5776 20.0492C16.4687 20.2307 16.3205 20.3758 16.133 20.4847C15.9515 20.5936 15.7459 20.648 15.516 20.648C15.1833 20.648 14.902 20.5331 14.6722 20.3032L7.68553 13.4709C7.5343 13.3257 7.4224 13.1745 7.34981 13.0172C7.28327 12.8539 7.25 12.6815 7.25 12.5Z" fill="#212121"/>
</g>
</svg>
