<svg width="18" height="18" viewBox="0 0 18 18" fill="none" xmlns="http://www.w3.org/2000/svg">
<path d="M0.740723 7.51831C0.740723 6.57756 0.917806 5.69214 1.27197 4.86206C1.62614 4.03198 2.11865 3.30428 2.74951 2.67896C3.38037 2.0481 4.10807 1.55558 4.93262 1.20142C5.7627 0.847249 6.65088 0.670166 7.59717 0.670166C8.54346 0.670166 9.42887 0.847249 10.2534 1.20142C11.0835 1.55558 11.814 2.0481 12.4448 2.67896C13.0757 3.30428 13.5682 4.03198 13.9224 4.86206C14.2765 5.69214 14.4536 6.57756 14.4536 7.51831C14.4536 8.22664 14.3485 8.90177 14.1382 9.5437C13.9334 10.1856 13.6457 10.775 13.2749 11.3118L16.8525 14.906C16.9854 15.0444 17.085 15.1965 17.1514 15.3625C17.2233 15.5341 17.2593 15.7167 17.2593 15.9104C17.2593 16.176 17.1984 16.4167 17.0767 16.6326C16.9549 16.8484 16.7889 17.0172 16.5786 17.1389C16.3683 17.2662 16.1248 17.3298 15.8481 17.3298C15.66 17.3298 15.4774 17.2966 15.3003 17.2302C15.1232 17.1638 14.9655 17.0614 14.8271 16.9231L11.2163 13.3123C10.6961 13.6443 10.1289 13.9071 9.51465 14.1008C8.90592 14.289 8.26676 14.3831 7.59717 14.3831C6.65088 14.3831 5.7627 14.206 4.93262 13.8518C4.10807 13.4976 3.38037 13.0051 2.74951 12.3743C2.11865 11.7434 1.62614 11.0129 1.27197 10.1829C0.917806 9.35278 0.740723 8.4646 0.740723 7.51831ZM2.75781 7.51831C2.75781 8.18791 2.88232 8.816 3.13135 9.40259C3.38591 9.98364 3.73454 10.4955 4.17725 10.9382C4.61995 11.3809 5.13184 11.7296 5.71289 11.9841C6.29948 12.2332 6.92757 12.3577 7.59717 12.3577C8.26676 12.3577 8.89209 12.2332 9.47314 11.9841C10.0597 11.7296 10.5744 11.3809 11.0171 10.9382C11.4598 10.4955 11.8057 9.98364 12.0547 9.40259C12.3092 8.816 12.4365 8.18791 12.4365 7.51831C12.4365 6.85425 12.3092 6.23169 12.0547 5.65063C11.8057 5.06405 11.4598 4.5494 11.0171 4.10669C10.5744 3.65845 10.0597 3.30981 9.47314 3.06079C8.89209 2.81177 8.26676 2.68726 7.59717 2.68726C6.92757 2.68726 6.29948 2.81177 5.71289 3.06079C5.13184 3.30981 4.61995 3.65845 4.17725 4.10669C3.73454 4.5494 3.38591 5.06405 3.13135 5.65063C2.88232 6.23169 2.75781 6.85425 2.75781 7.51831Z" fill="#212121"/>
</svg>
