<svg width="33" height="32" viewBox="0 0 33 32" fill="none" xmlns="http://www.w3.org/2000/svg">
<g id="icon/24/heart">
<path id="&#244;&#128;&#138;&#180;" d="M3.33887 12.0496C3.33887 10.8471 3.5294 9.75051 3.91047 8.75973C4.30001 7.76895 4.83774 6.91366 5.52367 6.19386C6.21806 5.47406 7.0183 4.92363 7.9244 4.54256C8.8305 4.15302 9.80858 3.95825 10.8586 3.95825C12.0865 3.95825 13.1662 4.2123 14.0977 4.72039C15.0292 5.22001 15.7744 5.88054 16.3333 6.70195C16.9007 5.88054 17.6459 5.22001 18.5689 4.72039C19.5004 4.2123 20.5801 3.95825 21.808 3.95825C22.8581 3.95825 23.8362 4.15302 24.7423 4.54256C25.6568 4.92363 26.4571 5.47406 27.143 6.19386C27.8289 6.91366 28.3624 7.76895 28.7435 8.75973C29.133 9.75051 29.3278 10.8471 29.3278 12.0496C29.3278 13.8618 28.8493 15.6613 27.8924 17.4481C26.9355 19.2264 25.5849 20.9582 23.8404 22.6434C22.1044 24.3201 20.0636 25.9205 17.7179 27.4448C17.4808 27.5973 17.2352 27.7327 16.9812 27.8513C16.7356 27.9783 16.5196 28.0418 16.3333 28.0418C16.1555 28.0418 15.9396 27.9783 15.6855 27.8513C15.4315 27.7327 15.1901 27.5973 14.9615 27.4448C12.6073 25.9205 10.558 24.3201 8.81356 22.6434C7.07758 20.9582 5.73114 19.2264 4.77423 17.4481C3.81732 15.6613 3.33887 13.8618 3.33887 12.0496ZM6.2858 12.0369C6.2858 13.1124 6.53985 14.2175 7.04794 15.3522C7.5645 16.4785 8.27583 17.5963 9.18193 18.7056C10.088 19.8065 11.1339 20.8735 12.3194 21.9066C13.505 22.9397 14.7709 23.9009 16.1174 24.79C16.2275 24.8747 16.2995 24.9171 16.3333 24.9171C16.3672 24.9171 16.4434 24.8747 16.562 24.79C17.9 23.9009 19.1617 22.9397 20.3473 21.9066C21.5328 20.8735 22.5786 19.8065 23.4847 18.7056C24.3908 17.5963 25.0979 16.4785 25.606 15.3522C26.1226 14.2175 26.3809 13.1124 26.3809 12.0369C26.3809 10.9953 26.1692 10.085 25.7457 9.30593C25.3308 8.52685 24.7592 7.92137 24.0309 7.48949C23.3027 7.04915 22.477 6.82897 21.554 6.82897C20.8088 6.82897 20.1737 6.956 19.6486 7.21004C19.1236 7.45562 18.6706 7.77318 18.2895 8.16272C17.9084 8.54379 17.5782 8.92909 17.2987 9.31863C17.1124 9.56421 16.9473 9.74204 16.8033 9.85212C16.6678 9.96221 16.5112 10.0173 16.3333 10.0173C16.1555 10.0173 15.9946 9.96645 15.8506 9.86483C15.7067 9.75474 15.5416 9.57267 15.3553 9.31863C15.0927 8.92909 14.7709 8.54379 14.3899 8.16272C14.0173 7.78165 13.5642 7.46409 13.0307 7.21004C12.4972 6.956 11.8579 6.82897 11.1127 6.82897C10.1896 6.82897 9.364 7.04915 8.63573 7.48949C7.90747 7.92137 7.33163 8.52685 6.90822 9.30593C6.49328 10.085 6.2858 10.9953 6.2858 12.0369Z" fill="#9E9E9E"/>
</g>
</svg>
