<svg width="25" height="24" viewBox="0 0 25 24" fill="none" xmlns="http://www.w3.org/2000/svg">
<path d="M4.89648 18.0513V9.46826C4.89648 8.56071 5.13444 7.86898 5.61035 7.39307C6.0918 6.91716 6.79183 6.6792 7.71045 6.6792H8.78955C8.80062 6.03727 8.97217 5.45068 9.3042 4.91943C9.64176 4.38818 10.0872 3.96484 10.6406 3.64941C11.1995 3.32845 11.8166 3.16797 12.4917 3.16797C13.1724 3.16797 13.7922 3.32845 14.3511 3.64941C14.91 3.96484 15.3555 4.38818 15.6875 4.91943C16.0251 5.45068 16.1966 6.03727 16.2021 6.6792H17.2896C18.2026 6.6792 18.8999 6.91716 19.3813 7.39307C19.8628 7.86898 20.1035 8.56071 20.1035 9.46826V18.0513C20.1035 18.9588 19.8711 19.6478 19.4062 20.1182C18.9414 20.5941 18.2939 20.832 17.4639 20.832H7.71045C6.79183 20.832 6.0918 20.5941 5.61035 20.1182C5.13444 19.6478 4.89648 18.9588 4.89648 18.0513ZM6.73926 17.8604C6.73926 18.2422 6.83333 18.5272 7.02148 18.7153C7.21517 18.8979 7.49463 18.9893 7.85986 18.9893H17.3062C17.5828 18.9893 17.8097 18.8979 17.9868 18.7153C18.1639 18.5272 18.2524 18.2422 18.2524 17.8604V9.65918C18.2524 9.27734 18.1556 8.99512 17.9619 8.8125C17.7682 8.62435 17.4915 8.53027 17.1318 8.53027H7.85986C7.49463 8.53027 7.21517 8.62435 7.02148 8.8125C6.83333 8.99512 6.73926 9.27734 6.73926 9.65918V17.8604ZM10.541 6.6792H14.4507C14.4396 6.32503 14.3483 6.00407 14.1768 5.71631C14.0107 5.42301 13.7811 5.19059 13.4878 5.01904C13.2 4.84749 12.868 4.76172 12.4917 4.76172C12.1265 4.76172 11.7972 4.84749 11.5039 5.01904C11.2161 5.19059 10.9865 5.42301 10.8149 5.71631C10.6434 6.00407 10.5521 6.32503 10.541 6.6792Z" fill="#212121"/>
</svg>
