<svg width="56" height="56" viewBox="0 0 56 56" fill="none" xmlns="http://www.w3.org/2000/svg">
<path d="M0 10C0 4.47715 4.47715 0 10 0H46C51.5229 0 56 4.47715 56 10V46C56 51.5229 51.5228 56 46 56H10C4.47715 56 0 51.5228 0 46V10Z" fill="#FFF8CF"/>
<path d="M22.178 40.6598C21.1147 40.6598 20.264 40.3446 19.626 39.7142C18.9879 39.0838 18.6613 38.2407 18.6461 37.1849L18.5094 26.8171L16.2877 27.3184C15.5814 27.4627 15.0041 27.4019 14.556 27.1361C14.1078 26.8702 13.8116 26.3955 13.6673 25.7119L12.6989 21.3369C12.5546 20.6533 12.6115 20.0723 12.8698 19.5937C13.128 19.1076 13.5762 18.7279 14.2142 18.4544L21.9958 15.1618C22.3376 15.0099 22.6414 14.9377 22.9072 14.9453C23.1807 14.9453 23.4541 15.0137 23.7275 15.1504C24.2516 15.3934 24.7339 15.5909 25.1745 15.7428C25.615 15.8947 26.0593 16.0087 26.5075 16.0846C26.9632 16.1606 27.4607 16.1986 28 16.1986C28.5317 16.1986 29.0216 16.1606 29.4697 16.0846C29.9178 16.0087 30.3622 15.8947 30.8027 15.7428C31.2509 15.5909 31.7332 15.3934 32.2497 15.1504C32.5307 15.0137 32.8041 14.9453 33.07 14.9453C33.3434 14.9377 33.6472 15.0099 33.9814 15.1618L41.7744 18.4544C42.4124 18.7279 42.8606 19.1076 43.1188 19.5937C43.377 20.0723 43.4302 20.6533 43.2783 21.3369L42.3213 25.7119C42.177 26.3955 41.8769 26.8702 41.4212 27.1361C40.9731 27.4019 40.3996 27.4627 39.7008 27.3184L37.4792 26.8171L37.3424 37.1849C37.3196 38.2407 36.9892 39.0838 36.3512 39.7142C35.7208 40.3446 34.8701 40.6598 33.7991 40.6598H22.178ZM22.2122 38.29H33.7764C34.1485 38.29 34.4372 38.1799 34.6422 37.9596C34.8549 37.747 34.965 37.4507 34.9726 37.071L35.1321 24.3675C35.1321 24.2384 35.1777 24.1358 35.2689 24.0599C35.3676 23.9763 35.4967 23.9536 35.6562 23.9915L39.7236 24.8916C39.9439 24.9448 40.0768 24.865 40.1224 24.6523L40.9313 21.0521C40.9617 20.923 40.9579 20.828 40.9199 20.7672C40.8819 20.6989 40.8098 20.6419 40.7034 20.5963L32.8079 17.2581C32.0408 17.6531 31.2698 17.9493 30.4951 18.1468C29.728 18.3443 28.8963 18.443 28 18.443C27.0961 18.443 26.2568 18.3443 25.4821 18.1468C24.7149 17.9493 23.9478 17.6531 23.1807 17.2581L15.2851 20.5963C15.1788 20.6419 15.1029 20.6989 15.0573 20.7672C15.0193 20.828 15.0193 20.923 15.0573 21.0521L15.8548 24.6523C15.9004 24.865 16.0371 24.9448 16.265 24.8916L20.3323 23.9915C20.4918 23.9536 20.6172 23.9763 20.7083 24.0599C20.7995 24.1358 20.845 24.2384 20.845 24.3675L21.0159 37.071C21.0159 37.4507 21.1223 37.747 21.3349 37.9596C21.5476 38.1799 21.84 38.29 22.2122 38.29ZM28 22.2256C27.005 22.2256 26.0897 22.0167 25.2542 21.599C24.4187 21.1736 23.7199 20.5888 23.1579 19.8444C22.6034 19.0924 22.2426 18.2304 22.0755 17.2581L24.2402 16.3239C24.2934 17.0075 24.4909 17.6151 24.8327 18.1468C25.1821 18.6785 25.6302 19.0962 26.1771 19.4001C26.7315 19.7039 27.3392 19.8558 28 19.8558C28.6532 19.8558 29.2532 19.7039 29.8001 19.4001C30.347 19.0962 30.7913 18.6785 31.1331 18.1468C31.4825 17.6151 31.6876 17.0075 31.7484 16.3239L33.9017 17.2581C33.7498 18.2304 33.3928 19.0924 32.8307 19.8444C32.2686 20.5888 31.5699 21.1736 30.7344 21.599C29.8989 22.0167 28.9874 22.2256 28 22.2256Z" fill="#FFD60A"/>
</svg>
