<svg width="16" height="16" viewBox="0 0 16 16" fill="none" xmlns="http://www.w3.org/2000/svg">
<path id="&#244;&#128;&#139;&#131;" d="M3.39078 14.6658L3.39049 14.6641C3.37217 14.5565 3.38148 14.3952 3.46002 14.1633L3.46031 14.1625L4.84801 10.0404L4.96604 9.68978L4.66528 9.47436L1.12587 6.93939C1.12563 6.93921 1.12539 6.93904 1.12515 6.93887C0.922839 6.79264 0.813882 6.66514 0.759928 6.56543C0.726539 6.4941 0.722483 6.43077 0.751662 6.34688L0.751702 6.34689L0.753756 6.34073C0.781234 6.2583 0.824293 6.20774 0.901066 6.16753C0.995333 6.11815 1.15138 6.07723 1.39977 6.08102L1.4042 6.08104L5.75186 6.10839L6.11995 6.1107L6.23149 5.7599L7.55083 1.61049L7.5509 1.61027C7.62639 1.37246 7.71478 1.23619 7.79171 1.16152L7.79175 1.16156L7.79703 1.15629C7.86063 1.09269 7.91899 1.07031 7.99719 1.07031C8.08307 1.07031 8.14282 1.09492 8.20418 1.15629L8.20414 1.15633L8.2095 1.16153C8.28643 1.23619 8.37482 1.37246 8.45031 1.61027L8.45038 1.61049L9.76972 5.7599L9.88126 6.11071L10.2494 6.10839L14.5902 6.08104V6.08106L14.5945 6.081C14.8489 6.0772 15.0068 6.11861 15.1001 6.16753C15.1769 6.20774 15.22 6.2583 15.2475 6.34073L15.2474 6.34074L15.2495 6.34688C15.2781 6.42884 15.2732 6.48994 15.2357 6.56328L15.2356 6.56327L15.2336 6.56741C15.1859 6.66274 15.082 6.79005 14.876 6.93887C14.8758 6.93905 14.8756 6.93922 14.8753 6.93939L11.3359 9.47436L11.0352 9.68978L11.1532 10.0404L12.5409 14.1625L12.5412 14.1633C12.6197 14.3952 12.629 14.5565 12.6107 14.6641L12.6104 14.6658C12.5947 14.7605 12.5569 14.822 12.4884 14.875C12.4211 14.9243 12.3608 14.9387 12.2774 14.9249C12.1637 14.9053 12.0079 14.8417 11.8072 14.694L11.8066 14.6935L8.2929 12.1164L7.9969 11.8992L7.7011 12.1166L4.19426 14.6938L4.19401 14.694C3.99453 14.8407 3.8366 14.905 3.71772 14.9248L3.71602 14.9251C3.64026 14.938 3.58236 14.926 3.51291 14.875C3.44436 14.822 3.40656 14.7606 3.39078 14.6658Z" fill="white" stroke="#E0E0E0"/>
</svg>
