<svg width="56" height="56" viewBox="0 0 56 56" fill="none" xmlns="http://www.w3.org/2000/svg">
<path d="M0 10C0 4.47715 4.47715 0 10 0H46C51.5229 0 56 4.47715 56 10V46C56 51.5229 51.5228 56 46 56H10C4.47715 56 0 51.5228 0 46V10Z" fill="#FFCDD2"/>
<path d="M25.6758 22.9775C25.4479 22.9775 25.2504 22.894 25.0833 22.7269C24.9162 22.5598 24.8327 22.3623 24.8327 22.1344C24.8327 21.899 24.9162 21.6977 25.0833 21.5306C25.2504 21.3635 25.4479 21.2799 25.6758 21.2799H33.2979C33.5333 21.2799 33.7346 21.3635 33.9017 21.5306C34.0688 21.6977 34.1524 21.899 34.1524 22.1344C34.1524 22.3623 34.0688 22.5598 33.9017 22.7269C33.7346 22.894 33.5333 22.9775 33.2979 22.9775H25.6758ZM25.6758 26.179C25.4479 26.179 25.2504 26.0955 25.0833 25.9284C24.9162 25.7613 24.8327 25.56 24.8327 25.3245C24.8327 25.0967 24.9162 24.8992 25.0833 24.7321C25.2504 24.565 25.4479 24.4814 25.6758 24.4814H31.4636C31.699 24.4814 31.9003 24.565 32.0674 24.7321C32.2345 24.8992 32.318 25.0967 32.318 25.3245C32.318 25.56 32.2345 25.7613 32.0674 25.9284C31.9003 26.0955 31.699 26.179 31.4636 26.179H25.6758ZM21.8818 40.1927C20.6362 40.1927 19.6905 39.8661 19.0449 39.2129C18.3993 38.5673 18.0765 37.6216 18.0765 36.376V19.2292C18.0765 17.9683 18.3993 17.0113 19.0449 16.3581C19.6981 15.6973 20.6514 15.3669 21.9046 15.3669H34.0726C35.3183 15.3669 36.2677 15.6973 36.9209 16.3581C37.5741 17.0113 37.9007 17.9683 37.9007 19.2292V31.568C37.9007 32.1529 37.802 32.6124 37.6045 32.9466C37.4146 33.2732 37.1564 33.577 36.8298 33.8581C36.3512 34.3062 36.0512 34.7961 35.9297 35.3278C35.8158 35.8519 35.8575 36.3418 36.055 36.7975C36.2525 37.2608 36.5791 37.6026 37.0348 37.8229C37.2703 37.9444 37.4754 38.1039 37.6501 38.3014C37.8248 38.4989 37.9121 38.7458 37.9121 39.042C37.9121 39.3686 37.802 39.642 37.5817 39.8623C37.3614 40.0826 37.0842 40.1927 36.75 40.1927H21.8818ZM20.6058 32.3086C20.8413 32.1947 21.0919 32.1073 21.3578 32.0465C21.6312 31.9858 21.9274 31.9554 22.2464 31.9554H34.5511C35.0904 31.9554 35.36 31.6933 35.36 31.1693V19.4456C35.36 18.9443 35.2309 18.5646 34.9727 18.3063C34.722 18.0405 34.3346 17.9075 33.8106 17.9075H22.1553C21.6388 17.9075 21.2514 18.0405 20.9932 18.3063C20.7349 18.5646 20.6058 18.9443 20.6058 19.4456V32.3086ZM22.3034 37.8685H33.9701C33.6662 37.3368 33.5029 36.7519 33.4802 36.1139C33.465 35.4835 33.6017 34.8645 33.8903 34.2568C33.7916 34.272 33.6814 34.2796 33.5599 34.2796H22.3831C21.7603 34.2796 21.2742 34.4505 20.9248 34.7923C20.583 35.1265 20.4121 35.5519 20.4121 36.0683C20.4121 36.6076 20.5716 37.0406 20.8906 37.3672C21.2096 37.7014 21.6806 37.8685 22.3034 37.8685ZM21.9388 33.0605V17.2581H23.6478V33.0605H21.9388Z" fill="#F44336"/>
</svg>
